<svg id="Layer_1" data-name="Layer 1" xmlns="http://www.w3.org/2000/svg" viewBox="0 0 400 113.47"><defs><style>.cls-1{fill:#0b133c;}.cls-2{fill:#00b8af;}.cls-3{fill:#5956a5;}</style></defs><path class="cls-1" d="M116.26,47v.89h6.2v7h-6.2V78h-7.69V54.89h-4.72v-7h4.72v-1.3C108.57,38.34,113,35,122.46,35v7C118.38,42,116.26,43.36,116.26,47Z"/><path class="cls-1" d="M124.65,62.93c0-9,7-15.78,16.19-15.78S157,53.94,157,62.93s-7,15.78-16.2,15.78S124.65,71.91,124.65,62.93Zm24.47,0a8.28,8.28,0,1,0-8.28,8.33A8.1,8.1,0,0,0,149.12,62.93Z"/><path class="cls-1" d="M179,47.38V55.3c-5.67,0-8.8,3.25-8.8,8.34V78h-7.69V47.86h7.69v4.43A10.75,10.75,0,0,1,179,47.38Z"/><path class="cls-1" d="M213.48,47.86V78h-7.69V74.33a11.24,11.24,0,0,1-9.16,4.38c-6.79,0-11.34-4.55-11.34-11.53V47.86H193V64.94c0,3.84,2.48,6.32,6.21,6.32,4,0,6.61-2.54,6.61-6.44v-17Z"/><path class="cls-1" d="M218.92,69h7.74a3.5,3.5,0,0,0,3.6,3.43c1.89,0,3.37-1.18,3.37-2.72,0-2.06-2.3-3.07-5-3.78-4.49-1.06-9.28-3.37-9.28-9.45s5-9.28,10.81-9.28c6.21,0,10.88,4.13,10.88,9.28h-7.74a3.06,3.06,0,0,0-3.19-3,2.8,2.8,0,0,0-3,2.48c0,1.89,2.13,3,5.26,3.79,4.67,1.18,9.1,3.48,9.1,9.27,0,6.15-5.08,9.7-11.23,9.7C223.7,78.71,218.92,74.33,218.92,69Z"/><path class="cls-1" d="M260.34,35.45H268V78h-7.69Z"/><path class="cls-1" d="M305.85,47.86V78h-7.68V74a12.39,12.39,0,0,1-9.81,4.67c-8.39,0-14.72-6.8-14.72-15.78S280,47.15,288.36,47.15a12.36,12.36,0,0,1,9.81,4.67v-4Zm-7.68,15.07a8.31,8.31,0,1,0-8.33,8.33A8.15,8.15,0,0,0,298.17,62.93Z"/><path class="cls-1" d="M345.33,62.93c0,9-6.26,15.78-14.66,15.78A12.4,12.4,0,0,1,320.86,74v4h-7.68V35.45h7.68V51.82a12.37,12.37,0,0,1,9.81-4.67C339.07,47.15,345.33,53.94,345.33,62.93Zm-7.92,0a8.28,8.28,0,1,0-8.27,8.33A8.09,8.09,0,0,0,337.41,62.93Z"/><path class="cls-1" d="M349.12,69h7.74a3.5,3.5,0,0,0,3.6,3.43c1.89,0,3.37-1.18,3.37-2.72,0-2.06-2.3-3.07-5-3.78-4.49-1.06-9.28-3.37-9.28-9.45s5-9.28,10.81-9.28c6.21,0,10.88,4.13,10.88,9.28h-7.74a3.06,3.06,0,0,0-3.19-3,2.8,2.8,0,0,0-3,2.48c0,1.89,2.13,3,5.26,3.79,4.67,1.18,9.1,3.48,9.1,9.27,0,6.15-5.08,9.7-11.23,9.7C353.9,78.71,349.12,74.33,349.12,69Z"/><path class="cls-2" d="M60.11,81.56a3.55,3.55,0,0,1-3.36,3.54h-.36a28.19,28.19,0,0,1-14-3.79A29.17,29.17,0,0,1,37.81,78a28.25,28.25,0,0,1-8.72-14.18,29.13,29.13,0,0,1-.89-6.91,3.55,3.55,0,0,0,7.09-.19,21.16,21.16,0,0,0,5.42,14.19c.53.58,1.09,1.14,1.67,1.67A21.16,21.16,0,0,0,56.57,78,3.55,3.55,0,0,1,60.11,81.56Z"/><path class="cls-3" d="M70.75,56.73a14.11,14.11,0,0,1-1.9,7.1A14.27,14.27,0,0,1,63.66,69a14.2,14.2,0,0,1-14.19,0,14.35,14.35,0,0,1-5.19-5.19,14.11,14.11,0,0,1-1.9-7.1,1.09,1.09,0,0,1,0-.18,3.54,3.54,0,0,1,7.08.18,7.1,7.1,0,1,0,14.19,0,3.55,3.55,0,0,1,7.09-.18Z"/><path class="cls-3" d="M84.93,56.73v.19a3.55,3.55,0,0,1-7.09-.19,21.16,21.16,0,0,0-5.42-14.18,18.8,18.8,0,0,0-1.67-1.67,21.24,21.24,0,0,0-28.37,0,21.93,21.93,0,0,0-1.67,1.67,21.16,21.16,0,0,0-5.42,14.18,3.55,3.55,0,0,1-7.09.19v-.37a28.63,28.63,0,0,1,.89-6.91A28.27,28.27,0,0,1,32,42.55,28.79,28.79,0,0,1,42.38,32.16a28.53,28.53,0,0,1,21.28-2.9,28.12,28.12,0,0,1,7.09,2.9,27.67,27.67,0,0,1,4.57,3.3A27.24,27.24,0,0,1,77.84,38a28.17,28.17,0,0,1,7.09,18.57Z"/></svg>