<svg id="Layer_1" data-name="Layer 1" xmlns="http://www.w3.org/2000/svg" viewBox="0 0 400 400"><defs><style>.cls-1{fill:#00b8af;}.cls-2{fill:#5956a5;}</style></defs><path class="cls-1" d="M214.92,304.41a14.93,14.93,0,0,1-14.16,14.9c-.25,0-.49,0-.76,0s-.51,0-.76,0A119.1,119.1,0,0,1,80.69,200.76,14.91,14.91,0,0,0,110.5,200a89.27,89.27,0,0,0,22.81,59.66,86.36,86.36,0,0,0,7,7A89.27,89.27,0,0,0,200,289.5,14.92,14.92,0,0,1,214.92,304.41Z"/><path class="cls-2" d="M259.66,200a59.35,59.35,0,0,1-8,29.83,60.08,60.08,0,0,1-21.85,21.85,59.74,59.74,0,0,1-59.66,0,60.08,60.08,0,0,1-21.85-21.85,59.35,59.35,0,0,1-8-29.83c0-.27,0-.51,0-.76a14.92,14.92,0,0,1,29.82.76,29.83,29.83,0,0,0,59.66,0,14.92,14.92,0,0,1,29.82-.76C259.66,199.49,259.66,199.73,259.66,200Z"/><path class="cls-2" d="M319.33,200c0,.27,0,.51,0,.76A14.91,14.91,0,0,1,289.5,200a89.27,89.27,0,0,0-22.81-59.66,86.36,86.36,0,0,0-7-7,89.38,89.38,0,0,0-119.32,0,86.36,86.36,0,0,0-7,7A89.27,89.27,0,0,0,110.5,200a14.91,14.91,0,0,1-29.81.76c0-.25,0-.49,0-.76s0-.51,0-.76a118.7,118.7,0,0,1,29.81-78.15,120.32,120.32,0,0,1,29.84-24.46,118.32,118.32,0,0,1,29.83-12.2,120.21,120.21,0,0,1,59.66,0,118.77,118.77,0,0,1,49.08,26.07,120.32,120.32,0,0,1,24.46,29.84,118.55,118.55,0,0,1,15.94,58.9C319.33,199.49,319.33,199.73,319.33,200Z"/></svg>